<?xml version="1.0" encoding="UTF-8"?><svg id="b" xmlns="http://www.w3.org/2000/svg" viewBox="0 0 1008.64 236.9"><g id="c"><path d="m291,63.26h30.54l-6.88,32.72c6.94-21.04,13.92-26.04,21.14-29.36,7.21-3.32,14.66-4.98,22.35-4.98,5.8,0,10.42.87,13.86,2.59,3.44,1.73,5.93,4.12,7.48,7.17,1.55,3.06,2.46,6.44,2.73,10.16,3.51-4.38,7.38-8.03,11.63-10.96,4.25-2.92,8.83-5.15,13.75-6.68,4.92-1.53,9.88-2.29,14.87-2.29,6.34,0,11.19,1.1,14.56,3.29,3.37,2.19,5.76,5.08,7.18,8.67,1.42,3.59,2.12,7.51,2.12,11.75,0,1.6-.14,3.66-.4,6.18-.27,2.52-.81,5.64-1.62,9.36l-14.56,67.34h-33.58l12.74-58.44c.54-3.03.81-5.61.81-7.72,0-3.83-.78-6.6-2.33-8.32-1.55-1.72-3.61-2.58-6.17-2.58-2.29,0-4.89.78-7.79,2.33-2.9,1.55-5.63,3.63-8.19,6.22-2.56,2.59-4.79,5.51-6.68,8.74l-12.54,59.77h-33.58l12.54-58.77c.4-1.59.67-3.02.81-4.29.13-1.26.2-2.49.2-3.69,0-3.44-.78-6.02-2.33-7.74-1.55-1.72-3.61-2.58-6.17-2.58-3.64,0-7.62,1.65-11.93,4.96-4.32,3.3-7.89,7.41-10.72,12.33l-12.74,59.77h-33.58l22.45-104.97Z" style="fill:#07253f;"/><path d="m556.17,135.14c0-.8.07-1.49.2-2.09.13-.6.27-1.36.4-2.29l14.56-67.5h-33.58l-12.34,57.29c-1.32,6.14-4.61,11.78-9.63,15.56-.03.02-.05.04-.08.06-2.7,2.02-5.26,3.49-7.69,4.4-2.43.91-4.79,1.37-7.08,1.37-6.34,0-9.51-3.78-9.51-11.36,0-2.12.27-4.58.81-7.37l12.74-59.96h-33.17l-14.76,67.6c-.54,2.67-.95,5.17-1.21,7.5-.27,2.33-.4,4.57-.4,6.7,0,16.8,8.22,25.2,24.68,25.2,8.36,0,16.28-1.6,23.77-4.8,7.49-3.2,18.69-11.78,20.33-30.05l-.81,20.93c-.07,4.96,1.55,8.46,4.85,10.51,3.24,2,7.48,3,12.74,3,1.89,0,4.01-.14,6.37-.4,2.36-.27,5.09-.67,8.19-1.21l5.87-28.32c-3.51-.13-5.26-1.73-5.26-4.78Z" style="fill:#07253f;"/><path d="m595.61,63.26h30.54l-7.84,34.11c5.09-16.19,11.04-24.17,15.42-26.96,4.38-2.79,9.23-4.95,14.56-6.48,5.33-1.53,10.89-2.29,16.69-2.29,6.34,0,11.23,1.1,14.66,3.29,3.44,2.19,5.87,5.15,7.28,8.87,1.41,3.72,2.12,7.64,2.12,11.75,0,2.66-.2,5.28-.61,7.87s-.88,5.08-1.42,7.47l-14.36,67.34h-33.58l12.74-58.44c.4-1.45.64-2.8.71-4.06.07-1.26.1-2.35.1-3.27,0-3.96-.84-6.84-2.53-8.62-1.69-1.78-4.01-2.67-6.98-2.67-2.29,0-4.89.71-7.79,2.14-2.9,1.43-5.76,3.47-8.6,6.12-2.83,2.65-5.26,5.67-7.28,9.03l-12.74,59.77h-33.58l22.45-104.97Z" style="fill:#07253f;"/><path d="m855.73,126.38c21.02,0,36.88-2.96,47.52-8.87,10.66-5.91,15.92-14.51,15.78-25.79.15-6.37-1.42-11.82-4.64-16.34-3.25-4.52-7.83-7.93-13.76-10.26-5.93-2.31-12.95-3.48-21.04-3.48-9.7,0-18.69,1.69-27,5.08-8.28,3.39-15.55,8.01-21.75,13.86-6.2,5.85-11.09,12.65-14.65,20.42-3.58,7.78-5.43,16.11-5.56,25.02.12,8.64,2.02,16.3,5.66,23.02,3.64,6.7,8.78,11.93,15.46,15.63,6.68,3.73,14.59,5.58,23.77,5.58,7.28,0,14.42-1.17,21.44-3.54,7.01-2.35,13.49-5.66,19.42-9.91,5.93-4.25,10.78-9.2,14.57-14.86l-26.5-8.49c-2.44,4.04-5.64,7.14-9.62,9.3-3.98,2.16-8.39,3.23-13.24,3.23-4.06,0-7.39-.71-10.03-2.16-2.62-1.44-4.52-3.54-5.66-6.31-1.14-2.75-1.79-6.16-1.91-10.24,0-.37.02-.77.04-1.14,4.12.17,8.03.25,11.7.25Zm-7.31-20.63h.02c1.19-2.77,2.6-5.29,4.25-7.62,2.68-3.81,5.87-6.85,9.51-9.07,3.64-2.23,7.53-3.35,11.72-3.35,2.56,0,4.79.4,6.68,1.17,1.89.77,3.37,1.79,4.45,3.08s1.62,2.89,1.62,4.81c0,2.46-1,4.54-2.93,6.26-1.96,1.75-5.2,3-9.72,3.77-1.91.32-4.1.57-6.57.76-4.06.3-8.08,1.22-11.76,2.95-4.49,2.11-9.41,5.68-11.12,11.54,0-.04.02-.1.02-.15.25-1.26,1.38-7.06,2.76-11.33.1-.29.19-.6.3-.88.02-.02.02-.04.02-.06.21-.56.44-1.12.67-1.67.02-.06.04-.1.06-.15,0-.02.02-.04.02-.06Z" style="fill:#07253f;"/><path d="m742.46,126.38c21.02,0,36.88-2.96,47.52-8.87,10.66-5.91,15.92-14.51,15.78-25.79.15-6.37-1.42-11.82-4.64-16.34-3.25-4.52-7.83-7.93-13.76-10.26-5.93-2.31-12.95-3.48-21.04-3.48-9.7,0-18.69,1.69-27,5.08-8.28,3.39-15.55,8.01-21.75,13.86-6.2,5.85-11.09,12.65-14.65,20.42-3.58,7.78-5.43,16.11-5.56,25.02.12,8.64,2.02,16.3,5.66,23.02,3.64,6.7,8.78,11.93,15.46,15.63,6.68,3.73,14.59,5.58,23.77,5.58,7.28,0,14.42-1.17,21.44-3.54,7.01-2.35,13.49-5.66,19.42-9.91,5.93-4.25,10.78-9.2,14.57-14.86l-26.5-8.49c-2.44,4.04-5.64,7.14-9.62,9.3-3.98,2.16-8.39,3.23-13.24,3.23-4.06,0-7.39-.71-10.03-2.16-2.62-1.44-4.52-3.54-5.66-6.31-1.14-2.75-1.79-6.16-1.91-10.24,0-.37.02-.77.04-1.14,4.12.17,8.03.25,11.7.25Zm-7.31-20.63h.02c1.19-2.77,2.6-5.29,4.25-7.62,2.68-3.81,5.87-6.85,9.51-9.07,3.64-2.23,7.53-3.35,11.72-3.35,2.56,0,4.79.4,6.68,1.17,1.89.77,3.37,1.79,4.45,3.08,1.08,1.29,1.62,2.89,1.62,4.81,0,2.46-1,4.54-2.93,6.26-1.96,1.75-5.2,3-9.72,3.77-1.91.32-4.1.57-6.57.76-4.06.3-8.08,1.22-11.76,2.95-4.49,2.11-9.41,5.68-11.12,11.54,0-.04.02-.1.02-.15.25-1.26,1.38-7.06,2.76-11.33.1-.29.19-.6.3-.88.02-.02.02-.04.02-.06.21-.56.44-1.12.67-1.67.02-.06.04-.1.06-.15,0-.02.02-.04.02-.06Z" style="fill:#07253f;"/><path d="m942.09,63.26h30.95l-6.91,31.87c5.4-16.65,13.11-23.48,19.45-27.49,6.34-4,12.47-6,18.41-6h3.13c.61,0,1.11.14,1.52.4l-6.27,29.93c-7.28,0-14.09,1.11-20.43,3.32-.06.02-.13.04-.19.07-8.81,3.12-15.19,10.84-17.15,19.98l-11.38,52.89h-33.58l22.45-104.97Z" style="fill:#07253f;"/><circle cx="124.01" cy="33.47" r="33.47" style="fill:#f9ae40;"/><path d="m228.23,33.75c0,41.77-24.7,77.88-60.27,94.49-10.82-9.36-23.72-16.64-38.31-20.96-25.35-7.55-51.34-4.98-73.63,5.41-22.18-19.13-36.25-47.42-36.25-78.94h43.5c0,33.49,27.24,60.73,60.73,60.73s60.73-27.24,60.73-60.73h43.5Z" style="fill:#57cefb;"/><path d="m199.78,236.9l-41.69-12.42c9.58-32.08-8.76-65.98-40.85-75.53-32.11-9.58-65.98,8.76-75.55,40.85L0,177.39c8.87-29.73,29.89-52.59,56.02-64.71,18.26,15.77,42.04,25.29,67.98,25.29,15.69,0,30.6-3.49,43.96-9.74,30.08,26,43.88,68.17,31.81,108.67Z" style="fill:#006cf2;"/></g></svg>