<svg xmlns="http://www.w3.org/2000/svg" xmlns:xlink="http://www.w3.org/1999/xlink" width="171.398" height="214.249" viewBox="0 0 171.398 214.249">
  <defs>
    <clipPath id="clip-path">
      <ellipse id="Ellipse_1" data-name="Ellipse 1" cx="77.041" cy="77.346" rx="77.041" ry="77.346" fill="none"/>
    </clipPath>
    <linearGradient id="linear-gradient" x1="0.5" x2="0.5" y2="0.782" gradientUnits="objectBoundingBox">
      <stop offset="0" stop-color="#00a1ed"/>
      <stop offset="1" stop-color="#fff" stop-opacity="0"/>
    </linearGradient>
  </defs>
  <g id="Group_899" data-name="Group 899" transform="translate(-1451 -3553)">
    <g id="Group_403" data-name="Group 403" transform="translate(1451 3553)">
      <g id="Group_368" data-name="Group 368" transform="translate(8.679 52.875)">
        <g id="Group_367" data-name="Group 367">
          <g id="Group_366" data-name="Group 366" clip-path="url(#clip-path)">
            <rect id="Rectangle_211" data-name="Rectangle 211" width="154.792" height="48.373" transform="translate(-0.603 -2.198)" fill="url(#linear-gradient)"/>
          </g>
        </g>
      </g>
      <g id="Group_369" data-name="Group 369" transform="translate(35.257 176.161)">
        <path id="Path_908" data-name="Path 908" d="M566.912,405.17v-1.847a1.346,1.346,0,0,0,.47-.343,2.809,2.809,0,0,0,.443-1.813,2.258,2.258,0,0,0-.449-1.673,1.364,1.364,0,0,0-.465-.268v-.986a4.081,4.081,0,0,1,1.959.694,2.541,2.541,0,0,1,1.01,2.166,2.852,2.852,0,0,1-2.431,2.916,3.277,3.277,0,0,1,1.085.677,2.5,2.5,0,0,1,.571,1.113l.636,2.376a2.059,2.059,0,0,0,.238.616,1.129,1.129,0,0,0,.389.3.156.156,0,0,1,.077.143v.427c0,.11-.062.164-.19.164h-1.741a.307.307,0,0,1-.324-.241l-1.183-4.12c-.031-.112-.064-.213-.1-.305Zm5.014,4.666h-.437c-.146,0-.217-.067-.217-.2v-2.826c0-.189.078-.284.235-.284h.374a.2.2,0,0,1,.2.087,2.838,2.838,0,0,1,.134.6q.357,1.96,1.628,1.961a1.235,1.235,0,0,0,1.04-.494,1.915,1.915,0,0,0,.38-1.2,2.425,2.425,0,0,0-.408-1.348,9.917,9.917,0,0,0-1.56-1.677,14.845,14.845,0,0,1-1.278-1.256,3.79,3.79,0,0,1-.609-1.007,3.274,3.274,0,0,1-.229-1.238,2.926,2.926,0,0,1,.725-2.043,2.3,2.3,0,0,1,1.772-.8,2.613,2.613,0,0,1,1.028.233,1.114,1.114,0,0,0,.33.1.384.384,0,0,0,.194-.062.6.6,0,0,1,.261-.051h.321c.169,0,.252.067.252.2v2.481a.166.166,0,0,1-.19.187h-.4c-.1,0-.173-.023-.206-.072a2.72,2.72,0,0,1-.169-.542q-.41-1.626-1.331-1.626a.979.979,0,0,0-.8.361,1.244,1.244,0,0,0-.3.831,2.143,2.143,0,0,0,.35,1.121,7.717,7.717,0,0,0,1.406,1.5,9.089,9.089,0,0,1,1.869,2.095,3.875,3.875,0,0,1,.517,1.959,3.193,3.193,0,0,1-.865,2.317,2.781,2.781,0,0,1-2.059.89,3.943,3.943,0,0,1-1.244-.241,1.168,1.168,0,0,0-.324-.082.548.548,0,0,0-.226.074.4.4,0,0,1-.163.054Zm8.052-1.394a.637.637,0,0,0,.33.585c.151.085.226.185.226.3v.337c0,.115-.074.172-.226.172h-2.716c-.128,0-.19-.054-.19-.159v-.35c0-.11.074-.21.225-.3a.647.647,0,0,0,.33-.585V399.57a.629.629,0,0,0-.33-.576.363.363,0,0,1-.225-.307v-.33c0-.115.074-.174.225-.174h2.716c.128,0,.19.054.19.158v.345a.374.374,0,0,1-.226.307.637.637,0,0,0-.33.576v8.872Zm5.275-9.389v9.389a.633.633,0,0,0,.333.585c.148.085.225.185.225.3v.337c0,.115-.077.172-.225.172h-2.719c-.125,0-.19-.054-.19-.159v-.35c0-.11.074-.21.225-.3a.65.65,0,0,0,.333-.585v-9.389h-.383a.731.731,0,0,0-.633.279,3.334,3.334,0,0,0-.368,1.22c-.012.085-.075.128-.185.128h-.339c-.2,0-.3-.072-.3-.217v-2.182c0-.169.095-.253.279-.253a5.915,5.915,0,0,1,.619.059,8.366,8.366,0,0,0,1.078.1h3.082c.157-.018.35-.046.576-.082.348-.044.538-.067.573-.067.157,0,.235.061.235.186v2.241c0,.145-.074.217-.226.217h-.33c-.134,0-.213-.033-.241-.1a4,4,0,0,1-.125-.488,2.312,2.312,0,0,0-.324-.842.72.72,0,0,0-.582-.2Zm7.018,5.591v3.8a.633.633,0,0,0,.338.585.356.356,0,0,1,.216.3v.337c0,.115-.074.172-.225.172h-2.716c-.128,0-.19-.054-.19-.159v-.35c0-.11.074-.21.226-.3a.648.648,0,0,0,.329-.585v-3.8l-1.741-5.074a.934.934,0,0,0-.52-.591.266.266,0,0,1-.2-.255v-.374a.148.148,0,0,1,.166-.166h2.811c.164,0,.244.066.244.194v.361c0,.09-.08.161-.244.21q-.383.119-.383.345a.448.448,0,0,0,.036.163l1.271,3.642,1.138-3.335a1.107,1.107,0,0,0,.062-.358c0-.189-.13-.335-.392-.435-.152-.056-.226-.127-.226-.217v-.4c0-.115.065-.174.2-.174h2.178c.166,0,.252.056.252.166v.389c0,.11-.086.2-.252.263a1.065,1.065,0,0,0-.645.629Zm-25.359-6.405v.986a2.752,2.752,0,0,0-.914-.133v4.4a2.234,2.234,0,0,0,.914-.168v1.847a1.455,1.455,0,0,0-.325-.58.89.89,0,0,0-.588-.209v4.062a.636.636,0,0,0,.33.585c.152.085.226.185.226.3v.337c0,.115-.074.172-.226.172h-2.716c-.128,0-.19-.054-.19-.159v-.35c0-.11.074-.21.226-.3a.648.648,0,0,0,.33-.585V399.57a.63.63,0,0,0-.33-.576.364.364,0,0,1-.226-.307v-.33c0-.115.074-.174.226-.174h2.283a8.193,8.193,0,0,1,.982.056Zm-51.483,8.63v-.959h.891l-.879-3.844-.012.051v-3.6l.891-.358a.2.2,0,0,1,.08-.016.151.151,0,0,1,.154.133l2.368,10.161a1.1,1.1,0,0,0,.151.4,1.034,1.034,0,0,0,.354.256c.134.07.2.151.2.241v.33c0,.12-.053.18-.163.18h-2.909c-.157,0-.234-.059-.234-.18v-.33c0-.115.092-.212.279-.291.226-.105.339-.248.339-.427a.98.98,0,0,0-.017-.174l-.366-1.565Zm9.779-2.391V399.57a.629.629,0,0,0-.33-.576.364.364,0,0,1-.226-.307v-.33c0-.115.074-.174.226-.174h1.967c.128,0,.19.054.19.158v.345a.372.372,0,0,1-.217.307.634.634,0,0,0-.339.576v10.079c0,.159-.083.241-.252.241h-.384a.37.37,0,0,1-.366-.241l-3.6-8.169v6.962a.633.633,0,0,0,.339.585c.152.085.229.185.229.3v.337c0,.115-.077.172-.229.172h-1.958c-.128,0-.19-.054-.19-.159v-.35c0-.11.074-.21.226-.3a.648.648,0,0,0,.33-.585V399.57a.63.63,0,0,0-.33-.576.364.364,0,0,1-.226-.307v-.33c0-.115.074-.174.226-.174h1.845a.621.621,0,0,1,.27.041.457.457,0,0,1,.14.2l2.662,6.054Zm11.832,2.659a2.765,2.765,0,0,1-.793,2.1,2.879,2.879,0,0,1-2.071.757,2.991,2.991,0,0,1-2.1-.749,2.542,2.542,0,0,1-.82-1.964V399.57a.63.63,0,0,0-.33-.576.373.373,0,0,1-.226-.307v-.33c0-.115.074-.174.226-.174h2.715c.128,0,.19.054.19.158v.345a.373.373,0,0,1-.226.307.631.631,0,0,0-.329.576v7.793c0,1.038.4,1.56,1.2,1.56.877,0,1.316-.611,1.316-1.828V399.57a.628.628,0,0,0-.333-.576.379.379,0,0,1-.226-.307v-.33c0-.115.077-.174.226-.174H537.4c.128,0,.19.054.19.158v.345a.373.373,0,0,1-.226.307.63.63,0,0,0-.33.576v7.567Zm6.258-2.659V399.57a.63.63,0,0,0-.33-.576.364.364,0,0,1-.226-.307v-.33c0-.115.074-.174.226-.174h1.968c.128,0,.19.054.19.158v.345a.373.373,0,0,1-.217.307.635.635,0,0,0-.338.576v10.079c0,.159-.083.241-.253.241h-.383a.37.37,0,0,1-.366-.241l-3.6-8.169v6.962a.634.634,0,0,0,.339.585c.151.085.229.185.229.3v.337c0,.115-.077.172-.229.172h-1.958c-.128,0-.19-.054-.19-.159v-.35c0-.11.074-.21.226-.3a.647.647,0,0,0,.33-.585V399.57a.63.63,0,0,0-.33-.576.364.364,0,0,1-.226-.307v-.33c0-.115.074-.174.226-.174h1.845a.623.623,0,0,1,.27.041.462.462,0,0,1,.14.2l2.662,6.054Zm4.971,3.964a.637.637,0,0,0,.33.585c.152.085.226.185.226.3v.337c0,.115-.074.172-.226.172h-2.716c-.128,0-.19-.054-.19-.159v-.35c0-.11.075-.21.226-.3a.648.648,0,0,0,.33-.585V399.57a.63.63,0,0,0-.33-.576.364.364,0,0,1-.226-.307v-.33c0-.115.075-.174.226-.174h2.716c.128,0,.19.054.19.158v.345a.373.373,0,0,1-.226.307.638.638,0,0,0-.33.576v8.872Zm4.918-3.46,1.2-5.21a.827.827,0,0,0,.036-.218c0-.21-.131-.373-.392-.493q-.294-.142-.294-.314v-.374c0-.125.081-.189.244-.189h2.053c.175,0,.261.064.261.189v.374c0,.125-.08.222-.244.291a.923.923,0,0,0-.531.675l-2.271,10.049c-.035.154-.118.233-.253.233h-.356a.25.25,0,0,1-.253-.233l-2.291-9.99a1.13,1.13,0,0,0-.55-.77c-.148-.086-.226-.186-.226-.3v-.343c0-.115.077-.174.226-.174h2.692c.139,0,.208.064.208.189v.374c0,.094-.071.179-.216.255a.479.479,0,0,0-.3.42,1.279,1.279,0,0,0,.026.233l1.228,5.328Zm9.785,4.854h-5.964c-.139,0-.207-.059-.207-.18v-.33c0-.1.095-.22.285-.345a.6.6,0,0,0,.253-.539V399.57a.64.64,0,0,0-.321-.583.355.355,0,0,1-.216-.3v-.36c0-.095.068-.143.207-.143h4.475c.08,0,.235-.008.461-.021.2-.015.33-.023.383-.023.19,0,.288.044.288.133v2.2c0,.115-.015.184-.042.205a.4.4,0,0,1-.22.036h-.324a.214.214,0,0,1-.234-.21,2.853,2.853,0,0,0-.342-1,1.072,1.072,0,0,0-1-.414h-1.1v4.241h.4a.8.8,0,0,0,.514-.123,2.241,2.241,0,0,0,.348-.777.824.824,0,0,1,.095-.231.307.307,0,0,1,.158-.023h.383c.148,0,.226.061.226.187v2.826c0,.117-.071.179-.211.179h-.4a.242.242,0,0,1-.184-.056,1.173,1.173,0,0,1-.14-.348,1.208,1.208,0,0,0-.339-.649.949.949,0,0,0-.506-.115h-.347v4.741h1.174a1.222,1.222,0,0,0,.906-.265,4.576,4.576,0,0,0,.626-1.455c.06-.181.164-.271.315-.271h.375c.142,0,.216.061.216.186Zm-47.541-11.322v3.6l-.891,3.793h.891v.959h-1.144l-.365,1.507a.581.581,0,0,0-.027.14c0,.151.131.315.392.5.166.12.253.225.253.315v.33c0,.12-.086.18-.253.18h-1.821c-.2,0-.3-.059-.3-.18v-.391a.286.286,0,0,1,.19-.253.934.934,0,0,0,.47-.637l2.029-8.716-.087-.509c-.03-.164-.045-.256-.045-.276,0-.051.045-.092.131-.128l.579-.233Zm-14.3,8.355v-.959h.891l-.879-3.844-.012.05v-3.6l.891-.358a.2.2,0,0,1,.08-.016.152.152,0,0,1,.155.133l2.368,10.161a1.085,1.085,0,0,0,.152.4,1.034,1.034,0,0,0,.354.256c.134.07.2.151.2.241v.33c0,.12-.054.18-.163.18H502.26c-.158,0-.235-.059-.235-.18v-.33c0-.115.093-.212.28-.291q.338-.158.339-.427a.968.968,0,0,0-.018-.174l-.365-1.565Zm4.956-8.685h5.129c.19,0,.285.069.285.2a2.592,2.592,0,0,1-.181.826l-3.5,9.739h1.046q1.342,0,1.61-1.535a1.187,1.187,0,0,1,.116-.419.244.244,0,0,1,.2-.07h.419c.121,0,.181.057.181.167v2.742h-5.509c-.163,0-.244-.072-.244-.218v-.33l3.69-10.22h-1.087a1.225,1.225,0,0,0-.889.256,1.925,1.925,0,0,0-.383,1,1.092,1.092,0,0,1-.1.371.34.34,0,0,1-.2.033h-.4c-.122,0-.184-.048-.184-.149Zm-10.851,9.6V399.57a.625.625,0,0,0-.342-.576.369.369,0,0,1-.217-.307v-.33c0-.115.074-.174.217-.174h2.724c.122,0,.184.054.184.158v.345a.373.373,0,0,1-.217.307.638.638,0,0,0-.342.576v7.307a3.061,3.061,0,0,1-.814,2.24,2.7,2.7,0,0,1-2.014.831,2.32,2.32,0,0,1-1.435-.4,1.181,1.181,0,0,1-.531-.951.778.778,0,0,1,.288-.611,1.087,1.087,0,0,1,.749-.251.983.983,0,0,1,.612.18.554.554,0,0,1,.241.466,1.354,1.354,0,0,1-.054.322.7.7,0,0,0-.024.172q0,.291.366.291c.4,0,.609-.458.609-1.379Zm5.895-9.268v3.6l-.891,3.794h.891v.959H499.99l-.365,1.507a.617.617,0,0,0-.027.14c0,.151.131.315.392.5.167.12.253.225.253.315v.33c0,.12-.086.18-.253.18h-1.821c-.2,0-.3-.059-.3-.18v-.391a.285.285,0,0,1,.19-.253.934.934,0,0,0,.47-.637l2.029-8.716-.086-.509c-.03-.164-.045-.256-.045-.276,0-.051.045-.092.131-.128Z" transform="translate(-492.452 -398.028)" fill="#00973d" fill-rule="evenodd"/>
      </g>
      <g id="Group_370" data-name="Group 370" transform="translate(20.333 96.193)">
        <path id="Path_909" data-name="Path 909" d="M473.774,276.28h-5.6c-.209,0-.316-.083-.316-.249a2.483,2.483,0,0,1,.444-1.452l1.823-2.617a16.376,16.376,0,0,0,1.229-2.029,3.959,3.959,0,0,0,.448-1.771,1.819,1.819,0,0,0-.341-1.142,1.084,1.084,0,0,0-.9-.441,1.307,1.307,0,0,0-.735.2c-.2.135-.3.247-.3.334,0,.035.055.09.169.158a.818.818,0,0,1,.486.7.724.724,0,0,1-.268.559,1.028,1.028,0,0,1-.712.239,1.1,1.1,0,0,1-.794-.275.937.937,0,0,1-.287-.711,1.666,1.666,0,0,1,.741-1.358,3.117,3.117,0,0,1,1.941-.567,3.228,3.228,0,0,1,2.116.649,2.19,2.19,0,0,1,.788,1.79,3.468,3.468,0,0,1-.587,1.9,20.234,20.234,0,0,1-2.206,2.616,9.131,9.131,0,0,0-1.694,2.2h2.88a.969.969,0,0,0,.524-.111.7.7,0,0,0,.25-.411c.058-.185.163-.277.317-.277h.372c.143,0,.215.052.215.158v1.9Zm3.817-10.417a2.372,2.372,0,0,1,2.18,1.348,8.282,8.282,0,0,1,.747,3.944,8.073,8.073,0,0,1-.761,3.953,2.325,2.325,0,0,1-2.082,1.318,2.423,2.423,0,0,1-2.1-1.3,7.233,7.233,0,0,1-.816-3.806,8.276,8.276,0,0,1,.8-4.122,2.336,2.336,0,0,1,2.032-1.337Zm1.047,3.252q0-2.535-.989-2.536c-.392,0-.651.261-.782.782a8.185,8.185,0,0,0-.2,1.955V273.4c0,1.559.328,2.339.98,2.339a.8.8,0,0,0,.753-.614,8.061,8.061,0,0,0,.236-2.427v-3.581Zm5.679-3.252a2.373,2.373,0,0,1,2.18,1.348,8.283,8.283,0,0,1,.747,3.944,8.074,8.074,0,0,1-.761,3.953,2.324,2.324,0,0,1-2.081,1.318,2.422,2.422,0,0,1-2.1-1.3,7.232,7.232,0,0,1-.817-3.806,8.282,8.282,0,0,1,.8-4.122,2.336,2.336,0,0,1,2.032-1.337Zm1.047,3.252q0-2.535-.988-2.536c-.393,0-.651.261-.782.782a8.154,8.154,0,0,0-.2,1.955V273.4q0,2.339.979,2.339a.8.8,0,0,0,.753-.614,8.066,8.066,0,0,0,.235-2.427v-3.581Zm4.793,1.548a2.38,2.38,0,0,1,1.721-.778,1.919,1.919,0,0,1,1.567.74,3.5,3.5,0,0,1,.6,2.233,4.056,4.056,0,0,1-.761,2.633,2.537,2.537,0,0,1-2.075.936q-2.961,0-2.962-4.674a7.669,7.669,0,0,1,1.029-4.344,3.093,3.093,0,0,1,2.639-1.5,2.458,2.458,0,0,1,1.369.372,1.045,1.045,0,0,1,.573.87.788.788,0,0,1-.268.59,1.123,1.123,0,0,1-1.4.025.764.764,0,0,1-.247-.573.751.751,0,0,1,.087-.334.4.4,0,0,0,.04-.137c0-.068-.058-.1-.177-.1a1.353,1.353,0,0,0-1.273.978,8.907,8.907,0,0,0-.456,3.07Zm0,.929v1.188a7.966,7.966,0,0,0,.23,2.387.789.789,0,0,0,.75.607.753.753,0,0,0,.75-.6,10.678,10.678,0,0,0,.195-2.61,2.675,2.675,0,0,0-.2-1.23.652.652,0,0,0-.608-.347A1.424,1.424,0,0,0,490.156,271.592Z" transform="translate(-467.807 -265.809)" fill="#00973d" fill-rule="evenodd"/>
        <path id="Path_910" data-name="Path 910" d="M491.166,276.446c-2,0-3.017-1.591-3.017-4.728a7.768,7.768,0,0,1,1.038-4.375,3.162,3.162,0,0,1,2.685-1.526,2.522,2.522,0,0,1,1.4.381,1.1,1.1,0,0,1,.6.915.845.845,0,0,1-.285.629,1.177,1.177,0,0,1-1.475.027.821.821,0,0,1-.264-.613.8.8,0,0,1,.093-.359.324.324,0,0,0,.034-.113c0-.012,0-.05-.123-.05a1.294,1.294,0,0,0-1.223.946,8.632,8.632,0,0,0-.449,2.918,2.4,2.4,0,0,1,1.663-.7,1.975,1.975,0,0,1,1.609.759,3.573,3.573,0,0,1,.608,2.267,4.12,4.12,0,0,1-.774,2.667A2.6,2.6,0,0,1,491.166,276.446Zm.706-10.521a3.057,3.057,0,0,0-2.595,1.479,7.662,7.662,0,0,0-1.02,4.314c0,3.066.978,4.62,2.908,4.62a2.5,2.5,0,0,0,2.033-.917,4.019,4.019,0,0,0,.749-2.6,3.475,3.475,0,0,0-.583-2.2,1.876,1.876,0,0,0-1.526-.72,2.339,2.339,0,0,0-1.681.762l-.095.1,0-.135a8.98,8.98,0,0,1,.46-3.089,1.406,1.406,0,0,1,1.323-1.012c.2,0,.232.1.232.158a.429.429,0,0,1-.045.16.7.7,0,0,0-.082.312.708.708,0,0,0,.23.535,1.07,1.07,0,0,0,1.326-.026.733.733,0,0,0,.251-.551,1,1,0,0,0-.548-.824A2.418,2.418,0,0,0,491.873,265.925Zm-7.508,10.521a2.483,2.483,0,0,1-2.142-1.324,7.324,7.324,0,0,1-.825-3.835,8.372,8.372,0,0,1,.8-4.15,2.4,2.4,0,0,1,2.078-1.363,2.432,2.432,0,0,1,2.228,1.376,8.38,8.38,0,0,1,.754,3.97,8.159,8.159,0,0,1-.769,3.98A2.385,2.385,0,0,1,484.365,276.446Zm-.085-10.563a2.27,2.27,0,0,0-1.985,1.31,8.275,8.275,0,0,0-.788,4.094,7.22,7.22,0,0,0,.808,3.778,2.382,2.382,0,0,0,2.05,1.273,2.285,2.285,0,0,0,2.035-1.292,8.068,8.068,0,0,0,.753-3.926,8.281,8.281,0,0,0-.739-3.918A2.332,2.332,0,0,0,484.28,265.882Zm-6.642,10.563a2.485,2.485,0,0,1-2.142-1.324,7.322,7.322,0,0,1-.825-3.835,8.366,8.366,0,0,1,.8-4.15,2.4,2.4,0,0,1,2.078-1.363,2.432,2.432,0,0,1,2.228,1.376,8.386,8.386,0,0,1,.754,3.97,8.15,8.15,0,0,1-.77,3.98A2.384,2.384,0,0,1,477.638,276.446Zm-.084-10.563a2.27,2.27,0,0,0-1.985,1.31,8.265,8.265,0,0,0-.789,4.094,7.215,7.215,0,0,0,.808,3.778,2.383,2.383,0,0,0,2.05,1.273,2.283,2.283,0,0,0,2.035-1.292,8.064,8.064,0,0,0,.754-3.926,8.286,8.286,0,0,0-.74-3.918A2.332,2.332,0,0,0,477.554,265.882ZM473.792,276.3h-5.649c-.323,0-.372-.19-.372-.3a2.546,2.546,0,0,1,.455-1.483l1.823-2.617a16.165,16.165,0,0,0,1.225-2.022,3.924,3.924,0,0,0,.442-1.747,1.774,1.774,0,0,0-.329-1.11,1.038,1.038,0,0,0-.861-.42,1.254,1.254,0,0,0-.705.193c-.242.16-.278.25-.278.289h0s.018.037.142.112a.87.87,0,0,1,.512.747.779.779,0,0,1-.286.6,1.086,1.086,0,0,1-.749.253,1.152,1.152,0,0,1-.831-.29.993.993,0,0,1-.3-.75,1.725,1.725,0,0,1,.763-1.4,3.183,3.183,0,0,1,1.975-.577,3.288,3.288,0,0,1,2.15.662,2.253,2.253,0,0,1,.808,1.831,3.532,3.532,0,0,1-.6,1.925,20.316,20.316,0,0,1-2.212,2.625,9.814,9.814,0,0,0-1.65,2.111h2.8a.922.922,0,0,0,.493-.1.648.648,0,0,0,.229-.38.379.379,0,0,1,.368-.317h.372c.235,0,.27.134.27.213Zm-3.266-9.809a1.142,1.142,0,0,1,.947.461,1.884,1.884,0,0,1,.351,1.175,4.034,4.034,0,0,1-.454,1.8,16.428,16.428,0,0,1-1.233,2.035l-1.823,2.617A2.444,2.444,0,0,0,467.88,276c0,.084.027.2.263.2h5.541v-1.85c0-.034,0-.1-.161-.1h-.372c-.082,0-.2.025-.265.239a.745.745,0,0,1-.272.439,1.019,1.019,0,0,1-.553.12H469.1l.033-.075a9.186,9.186,0,0,1,1.7-2.218,20.326,20.326,0,0,0,2.2-2.609,3.426,3.426,0,0,0,.578-1.867,2.123,2.123,0,0,0-.768-1.748,3.187,3.187,0,0,0-2.081-.637,3.079,3.079,0,0,0-1.909.555,1.622,1.622,0,0,0-.72,1.315.888.888,0,0,0,.271.672,1.049,1.049,0,0,0,.756.26.976.976,0,0,0,.676-.226.665.665,0,0,0,.25-.519.763.763,0,0,0-.459-.655c-.175-.105-.2-.168-.2-.2,0-.111.1-.232.327-.38A1.359,1.359,0,0,1,470.526,266.49Zm20.573,9.3a.844.844,0,0,1-.8-.642,7.96,7.96,0,0,1-.232-2.406v-1.206l.012-.015a1.48,1.48,0,0,1,1.158-.629.708.708,0,0,1,.654.372,2.682,2.682,0,0,1,.208,1.258,10.608,10.608,0,0,1-.2,2.627A.8.8,0,0,1,491.1,275.792Zm-.925-4.216v1.168a7.99,7.99,0,0,0,.226,2.368.735.735,0,0,0,.7.572.7.7,0,0,0,.7-.567,10.7,10.7,0,0,0,.192-2.593,2.649,2.649,0,0,0-.192-1.2.6.6,0,0,0-.561-.319A1.371,1.371,0,0,0,490.174,271.576Zm-5.836,4.181c-.686,0-1.034-.805-1.034-2.393v-4.082a8.251,8.251,0,0,1,.2-1.968c.137-.546.417-.823.834-.823.7,0,1.042.846,1.042,2.59v3.581a8,8,0,0,1-.239,2.447A.846.846,0,0,1,484.339,275.756Zm0-9.159c-.366,0-.6.243-.729.742a8.127,8.127,0,0,0-.2,1.942v4.082c0,1.517.311,2.285.925,2.285.326,0,.556-.189.7-.579a8.066,8.066,0,0,0,.232-2.408V269.08C485.272,267.433,484.958,266.6,484.339,266.6Zm-6.726,9.159c-.686,0-1.034-.805-1.034-2.393v-4.082a8.28,8.28,0,0,1,.2-1.968c.137-.546.417-.823.834-.823.7,0,1.042.846,1.042,2.59v3.581a8.018,8.018,0,0,1-.239,2.447A.846.846,0,0,1,477.612,275.756Zm0-9.159c-.366,0-.6.243-.729.742a8.154,8.154,0,0,0-.2,1.942v4.082c0,1.517.311,2.285.925,2.285.326,0,.556-.189.7-.579a8.047,8.047,0,0,0,.232-2.408V269.08C478.547,267.433,478.232,266.6,477.612,266.6Z" transform="translate(-467.771 -265.774)" fill="#00973d"/>
      </g>
      <g id="Group_371" data-name="Group 371" transform="translate(34.511 115.473)">
        <path id="Path_911" data-name="Path 911" d="M491.218,301.681l2.727-4.021,5.934,1.719-3.12,3.944Z" transform="translate(-491.218 -297.66)" fill="#00973d" fill-rule="evenodd"/>
      </g>
      <g id="Group_381" data-name="Group 381" transform="translate(34.921 0)">
        <g id="Group_372" data-name="Group 372" transform="translate(93.122 143.075)">
          <path id="Path_912" data-name="Path 912" d="M645.905,347.329l3.207-4.02,5.542,1.505-3.73,3.729Z" transform="translate(-645.905 -343.309)" fill="#00973d" fill-rule="evenodd"/>
        </g>
        <g id="Group_373" data-name="Group 373" transform="translate(85.453 111.66)">
          <path id="Path_913" data-name="Path 913" d="M633.887,291.354l-.666,2.526c3.82,3.205,3.892,6.822,2.871,11.449-.136.527.151.735.5.245C639.254,300.06,638.284,295.268,633.887,291.354Z" transform="translate(-633.221 -291.354)" fill="#00973d" fill-rule="evenodd"/>
        </g>
        <g id="Group_374" data-name="Group 374" transform="translate(40.824 126.899)">
          <path id="Path_914" data-name="Path 914" d="M561.065,320.7l2.231,3.963c.434-2.217,2.948-9.37,5.344-3.658l.519-2.641c-2.961-4.458-4.745.379-5.76,3.1l-2.023-3.1c-1-1.107-1.521-.142-1.838.941-.165.873-.357,1.929.8,2.056.009-.094.018-.186.027-.279l.025-.28C560.615,320.43,560.84,320.534,561.065,320.7Z" transform="translate(-559.414 -316.557)" fill="#00973d" fill-rule="evenodd"/>
        </g>
        <g id="Group_375" data-name="Group 375" transform="translate(7.823 113.004)">
          <path id="Path_915" data-name="Path 915" d="M504.835,297.6l2.727-4.02L513.5,295.3l-3.119,3.944Z" transform="translate(-504.835 -293.577)" fill="#00973d" fill-rule="evenodd"/>
        </g>
        <g id="Group_376" data-name="Group 376" transform="translate(30.082 118.019)">
          <path id="Path_916" data-name="Path 916" d="M560.1,301.871l-.636,2.395c-6.319,1.316-12.472,2.061-17.814,5.879l.4-2.16C547.5,304.134,554.448,303.669,560.1,301.871Z" transform="translate(-541.647 -301.871)" fill="#00973d" fill-rule="evenodd"/>
        </g>
        <g id="Group_377" data-name="Group 377" transform="translate(52.486 119.893)">
          <path id="Path_917" data-name="Path 917" d="M583.1,311.213c-.842,1.818-2.1,2.983-3.11,2.738-1.252-.3-1.663-2.659-.914-5.241a7.351,7.351,0,0,1,2.252-3.74l.209.734A5.557,5.557,0,0,0,580,308.239c-.579,1.858-.261,3.553.707,3.772.695.157,1.542-.49,2.178-1.557Z" transform="translate(-578.7 -304.97)" fill="#00973d" fill-rule="evenodd"/>
        </g>
        <g id="Group_378" data-name="Group 378" transform="translate(15.215 110.103)">
          <path id="Path_918" data-name="Path 918" d="M531.606,290.975l.219.267,1.026,1.555a4.013,4.013,0,0,1-1.092,5.766l-.152-.077v-2.405l.88.312a2.793,2.793,0,0,0-.88-2.5Zm-.853-1.04.853,1.04v2.916c-.046-.051-.1-.1-.145-.154l-.708,1.356v-1.35c.044-.091.064-.152.047-.163l-.047-.031v-3.613Zm.853,8.551-.853-.427v-2.694l.143.464.71.251Zm-2-6.985-.112-.178v-1.534l.311-1.009.946,1.155v3.613a1.578,1.578,0,0,0-1.257-.308V291.5c.037,0,.075,0,.112,0Zm1.145,6.558-.483-.241-.562-.584c-.07.105-.141.209-.212.312V294.9a.258.258,0,0,0,.11.007l.565-.1c.118-.256.452-.791.582-1.062v1.35l-.053.1.053.172Zm-1.257-6.736-.317-.5.317-1.032v1.534Zm0,6.223c-2.858,4.153-6.311,6.789-10.607,9.6-.9.194-.924-.2-1.828-.008a69.273,69.273,0,0,0,11.72-10.519l-.2-.389c-1.166-.888-1.668-1.665-1.324-3.11.654-.779,1.161-1.566,2.237-1.617v1.737a4.621,4.621,0,0,0-1.31.658,4.941,4.941,0,0,0,1.31,1Z" transform="translate(-517.061 -288.78)" fill="#00973d" fill-rule="evenodd"/>
        </g>
        <g id="Group_379" data-name="Group 379" transform="translate(0 116.104)">
          <path id="Path_919" data-name="Path 919" d="M566.3,309.394l-.519-.509c-3.1,1.822-5.85,1.555-9.337.622l-.058,4.24a5.711,5.711,0,0,0,2.94,1.244l-1.153,1.7c-2.211,2.747-3.776,3.762-7.074,2.646.057-1.338-.1-2.676-.045-4.014-.149-1.044-.155-1.283-1.21-1.753h-4.15c-1.185.333-1.738.718-2.017,1.753l-.058,4.466,1.441.057h1.9l.567.786c-15.037,7.893-20.763,6.676-38.991-4.418-4.556-4.3-5.953-1-7.288,3.4-4.948,18.529-13.826-2.408.455-10.537l2.335-1.839c2.418-2.52,4.534-5.157,6.89-7.694-.038-.278-.076-.558-.114-.836H510.3c-2.727,3.275-5.093,6.276-8.541,8.809-19.163,10.255-5.469,29.967.113,18.229.413-1.286,1.189-7.4,3.189-6.857,15.764,10.414,26.1,16.84,44.514,4.14,7.842,5.823,10.351-8.869,16.775-9Z" transform="translate(-491.897 -298.704)" fill="#00973d" fill-rule="evenodd"/>
        </g>
        <g id="Group_380" data-name="Group 380" transform="translate(66.27)">
          <path id="Path_920" data-name="Path 920" d="M637.821,235.069l1.393-.588c.18.3.425.811.605,1.114q-.253,2.1-.505,4.195l-.433,1.048-.98.28-1.96.559-1.595,1.048-1.613,1.468-2.168,2.376q-.857,1.154-1.714,2.307a19.638,19.638,0,0,1-2.954,3.632v-6.419c1.189-1.148,2.307-2.379,3.435-3.653l.417-1.073a9.94,9.94,0,0,0-3.853-.469v-6C629.7,234.52,634.36,237.359,637.821,235.069ZM625.9,252.508a10.051,10.051,0,0,1-3.69,2.325c-.367,2.838-1.2,3-1.244.282-3.55.441-6.808-2.3-8.682-8.056-3.189-12.179-3.975-122.037-9-132.961L601.5,112l1.2-5.313c9.546,10.419,8.081,125.7,12.906,139.5,1.484,1.764,2.257,3.119,4.776,2.992.241-.012-.045-5.441.484-9.2q.421-1.139.841-2.277a5.237,5.237,0,0,1,4.192-2.8v6c-3.461.4-4.27,3.725-3.674,8.228a28.128,28.128,0,0,0,3.674-3.033Z" transform="translate(-601.497 -106.688)" fill="#00973d" fill-rule="evenodd"/>
        </g>
      </g>
      <g id="Group_382" data-name="Group 382" transform="translate(50.329 16.979)">
        <path id="Path_921" data-name="Path 921" d="M558.538,201.382c-8.2.117-8.8,11.59.374,11.656l.816,25.387c-9.948-9.228-25.049-15.45-42.348-16.808l.062-.161a196.909,196.909,0,0,0,21.3-33.191,180.167,180.167,0,0,0,15.728-43.321,7.99,7.99,0,0,1-1.315-4.36c-.079-3.037,1.288-5.544,3.093-5.815C556.815,156.969,557.825,179.181,558.538,201.382Z" transform="translate(-517.379 -134.768)" fill="#ffca45" fill-rule="evenodd"/>
      </g>
      <g id="Group_387" data-name="Group 387" transform="translate(123.91 96.6)">
        <g id="Group_383" data-name="Group 383" transform="translate(20.242 0.561)">
          <path id="Path_922" data-name="Path 922" d="M679.52,275.219l-1.491,1.969a5.3,5.3,0,0,1-1.576-3.531q-.072-.585-.08-3.849a2.78,2.78,0,0,1-2.1.9,2.706,2.706,0,0,1-1.058-.268c-.445-.2-.666-.418-.666-.655v-2.406a5.685,5.685,0,0,0,2.557.634,6.93,6.93,0,0,0,2.289-.418,26.038,26.038,0,0,0,.329,3.978A9.3,9.3,0,0,0,679.52,275.219Z" transform="translate(-672.545 -267.375)" fill="#00973d" fill-rule="evenodd"/>
        </g>
        <g id="Group_384" data-name="Group 384" transform="translate(12.215 0.241)">
          <path id="Path_923" data-name="Path 923" d="M665.479,267.661q0,2.815-2.557,3.251a6.416,6.416,0,0,1,.633,2.756,8.208,8.208,0,0,1-.6,3.17h-.068l-.128-.217q-.638-1.843-1.375-3.849a12.285,12.285,0,0,0-2.113-3.648l1.127-2.278a3.249,3.249,0,0,1,.773.635,4.865,4.865,0,0,0,.754.686,1.96,1.96,0,0,0,1.126.34,1.8,1.8,0,0,0,1.351-.547,8.916,8.916,0,0,0,.762-1.114l.176.088A2.033,2.033,0,0,1,665.479,267.661Z" transform="translate(-659.27 -266.846)" fill="#00973d" fill-rule="evenodd"/>
        </g>
        <g id="Group_385" data-name="Group 385" transform="translate(5.604)">
          <path id="Path_924" data-name="Path 924" d="M653.937,275.2l-2.081,1.588a23.379,23.379,0,0,1-2.217-1.113q-1.305-.835-1.3-1.721,0-.387.926-1.222c.264-.238.709-.625,1.327-1.154l-1.279-.773c-.589-.36-.882-.683-.882-.975q0-.667,1.54-1.822c.232-.169.958-.692,2.172-1.561v.339a1.431,1.431,0,0,1-.413,1.222c-.405.241-.818.479-1.231.717a6.319,6.319,0,0,0,1.455.834q1.058.52,1.059.9c0,.264-.353.736-1.059,1.412s-1.058,1.025-1.058,1.045c0,.183.445.578,1.327,1.171C652.3,274.139,652.871,274.509,653.937,275.2Z" transform="translate(-648.337 -266.448)" fill="#00973d" fill-rule="evenodd"/>
        </g>
        <g id="Group_386" data-name="Group 386" transform="translate(0 0.418)">
          <path id="Path_925" data-name="Path 925" d="M642.99,273.473a7.964,7.964,0,0,1-.833,3.72l-.1-.068q-.823-3.324-1.058-4.019a12.475,12.475,0,0,0-1.925-3.731l1.315-2.237a11.122,11.122,0,0,1,1.772,3.035A8.99,8.99,0,0,1,642.99,273.473Z" transform="translate(-639.069 -267.139)" fill="#00973d" fill-rule="evenodd"/>
        </g>
      </g>
      <g id="Group_395" data-name="Group 395" transform="translate(45.246 10.935)">
        <g id="Group_388" data-name="Group 388" transform="translate(67.606 154.899)">
          <path id="Path_926" data-name="Path 926" d="M620.782,384.969l3.206-4.02,5.542,1.5-3.729,3.73Z" transform="translate(-620.782 -380.949)" fill="#0097de" fill-rule="evenodd"/>
        </g>
        <g id="Group_389" data-name="Group 389" transform="translate(60.225 125.182)">
          <path id="Path_927" data-name="Path 927" d="M609.241,331.8l-.666,2.526c3.82,3.205,3.892,6.822,2.871,11.45-.137.526.151.735.5.244C614.608,340.507,613.638,335.715,609.241,331.8Z" transform="translate(-608.575 -331.802)" fill="#0097de" fill-rule="evenodd"/>
        </g>
        <g id="Group_390" data-name="Group 390" transform="translate(43.89)">
          <path id="Path_928" data-name="Path 928" d="M615.535,265.254l1.4-.588c.175.3.411.811.585,1.114q-.288,2.1-.578,4.194l-.451,1.048-.985.279-1.971.56-1.613,1.048-1.639,1.467-2.209,2.377-1.754,2.306a20.375,20.375,0,0,1-2.87,3.494v-6.314c1.2-1.139,2.324-2.358,3.464-3.62l.437-1.071a9.785,9.785,0,0,0-3.9-.464V265.1C607.295,264.625,611.985,267.577,615.535,265.254Zm-12.081,17.3a10.428,10.428,0,0,1-3.877,2.463c-.417,2.839-1.253,3-1.25.282-3.558.441-6.768-2.3-8.542-8.056-2.977-12.18-1.644-134.138-6.481-145.062l-1.743-2.1q.646-2.657,1.292-5.313c9.366,10.418,5.685,137.8,10.271,151.6,1.454,1.764,2.2,3.119,4.724,2.992.241-.012.049-5.441.643-9.2q.441-1.139.881-2.278a5.353,5.353,0,0,1,4.081-2.784v5.982c-3.423.431-4.277,3.743-3.762,8.222a28.921,28.921,0,0,0,3.762-3.066Z" transform="translate(-581.56 -124.773)" fill="#0097de" fill-rule="evenodd"/>
        </g>
        <g id="Group_391" data-name="Group 391" transform="translate(21.404 138.129)">
          <path id="Path_929" data-name="Path 929" d="M571.016,359.29l.839-.467c-.1-1.794.322-3.947-.07-5.609-1.432,0-1.594.316-2.712,1.269-5.885,7.3-8.038,16.254-19.041,19.832l-5.658,1.737,3.305.534c11.9.715,14.671-5.393,19.99-15.558C568.411,359.848,569.394,358.307,571.016,359.29Z" transform="translate(-544.372 -353.214)" fill="#0097de" fill-rule="evenodd"/>
        </g>
        <g id="Group_392" data-name="Group 392" transform="translate(43.019 152.264)">
          <path id="Path_930" data-name="Path 930" d="M580.378,379.134c1.528-1.907,3.277-2.943,4.274-2.4,1.235.678.862,3.532-.832,6.355a9.75,9.75,0,0,1-3.7,3.788l.031-.911a7.371,7.371,0,0,0,2.521-2.564c1.261-2.021,1.507-4.081.546-4.586-.69-.363-1.819.175-2.869,1.258Z" transform="translate(-580.118 -376.592)" fill="#0097de" fill-rule="evenodd"/>
        </g>
        <g id="Group_393" data-name="Group 393" transform="translate(6.012 114.277)">
          <path id="Path_931" data-name="Path 931" d="M535.748,313.768c-2.8,5.988,2.273,32.229,2.555,27.7l.183-2.944c-1.63-5.525-1.9-11.384-1.925-17.132,10.625,18.839,7.793,31.783-17.645,41.154,7.567,0,9.593.154,16.008-3.535,6.089-4.788,7.923-8.73,8.732-19.217C544.18,328.886,541.582,321.668,535.748,313.768Z" transform="translate(-518.916 -313.768)" fill="#0097de" fill-rule="evenodd"/>
        </g>
        <g id="Group_394" data-name="Group 394" transform="translate(0 117.358)">
          <path id="Path_932" data-name="Path 932" d="M514.979,323.914l2.117-4.564a13.364,13.364,0,0,1,6.815-.085,2.013,2.013,0,0,1,.363,2.31c-3.97,7.731-10.966,13.784-12.963,21.188-.175,6.3,2.209,12.38,10.089,12.51,3.789.247,6.59-3.1,7.4-6.762-1.716-3.528-4.07-4.54-7.934-3.845-.187.31-.622.635-.81.945l.492-5.231c8.764-2.795,11.234,7.83,8.632,12.779-5.1,8.831-12.92,8.731-18.19,2.1-6.218-12.874,3.31-20.7,10.274-31.09l-.481-.761A13.857,13.857,0,0,0,514.979,323.914Z" transform="translate(-508.973 -318.863)" fill="#0097de" fill-rule="evenodd"/>
        </g>
      </g>
      <g id="Group_396" data-name="Group 396" transform="translate(83.483 144.999)">
        <path id="Path_933" data-name="Path 933" d="M572.21,350.565l2.912-4.074,4.333,3.138-3.206,3.909Z" transform="translate(-572.21 -346.491)" fill="#0097de" fill-rule="evenodd"/>
      </g>
      <g id="Group_402" data-name="Group 402" transform="translate(0 190.083)">
        <g id="Group_397" data-name="Group 397">
          <path id="Path_934" data-name="Path 934" d="M519.8,426.426a8.581,8.581,0,0,1-2.607.409c-5.766,0-8.694-5.783-14.458-5.783s-8.705,5.783-14.464,5.783-8.694-5.783-14.458-5.783-8.705,5.783-14.465,5.783-8.695-5.783-14.457-5.783c-4.389,0-7.142,3.353-10.75,4.956a8.9,8.9,0,0,1,3.4-.691c5.764,0,8.692,5.783,14.457,5.783s8.7-5.783,14.465-5.783,8.691,5.783,14.457,5.783,8.7-5.783,14.465-5.783,8.691,5.783,14.457,5.783c4.061,0,6.724-2.876,9.96-4.571Z" transform="translate(-434.143 -421.052)" fill="#0097de" fill-rule="evenodd"/>
        </g>
        <g id="Group_398" data-name="Group 398" transform="translate(28.938 14.118)">
          <path id="Path_935" data-name="Path 935" d="M538.722,449.776a8.585,8.585,0,0,1-2.607.409c-5.765,0-8.694-5.784-14.458-5.784s-8.706,5.784-14.464,5.784S498.5,444.4,492.735,444.4c-4.381,0-7.134,3.344-10.734,4.947v.005a8.86,8.86,0,0,1,3.381-.687c5.764,0,8.691,5.783,14.458,5.783s8.7-5.783,14.465-5.783,8.691,5.783,14.457,5.783c4.061,0,6.723-2.876,9.96-4.572Z" transform="translate(-482.001 -444.401)" fill="#00973d" fill-rule="evenodd"/>
        </g>
        <g id="Group_399" data-name="Group 399" transform="translate(85.742 0.003)">
          <path id="Path_936" data-name="Path 936" d="M575.945,426.43a8.581,8.581,0,0,0,2.607.409c5.766,0,8.694-5.782,14.458-5.782s8.705,5.782,14.464,5.782,8.694-5.782,14.457-5.782,8.705,5.782,14.465,5.782,8.694-5.782,14.457-5.782c4.388,0,7.142,3.353,10.749,4.955a8.9,8.9,0,0,0-3.4-.691c-5.764,0-8.691,5.782-14.457,5.782s-8.7-5.782-14.465-5.782-8.691,5.782-14.457,5.782-8.7-5.782-14.465-5.782S591.671,431.1,585.9,431.1c-4.062,0-6.723-2.875-9.96-4.57Z" transform="translate(-575.945 -421.057)" fill="#0097de" fill-rule="evenodd"/>
        </g>
        <g id="Group_400" data-name="Group 400" transform="translate(85.742 14.118)">
          <path id="Path_937" data-name="Path 937" d="M575.945,449.774a8.58,8.58,0,0,0,2.607.408c5.766,0,8.694-5.782,14.458-5.782s8.706,5.782,14.464,5.782,8.694-5.782,14.457-5.782c4.382,0,7.134,3.344,10.733,4.946v.005a8.853,8.853,0,0,0-3.38-.687c-5.764,0-8.691,5.782-14.457,5.782s-8.7-5.782-14.465-5.782-8.691,5.782-14.457,5.782c-4.061,0-6.723-2.875-9.96-4.571Z" transform="translate(-575.945 -444.4)" fill="#00973d" fill-rule="evenodd"/>
        </g>
        <g id="Group_401" data-name="Group 401" transform="translate(12.693 7.356)">
          <path id="Path_938" data-name="Path 938" d="M528.183,434.151l.005,0,.007,0v.007c3.448,1.637,6.029,4.843,10.5,4.843,5.762,0,8.706-5.782,14.465-5.782S561.851,439,567.614,439s8.705-5.782,14.465-5.782S590.773,439,596.536,439c1.244,0,5.472-1.158,4.456-.69-3.584,1.647-7.421,4.954-11.809,4.954-5.764,0-8.692-5.782-14.457-5.782s-8.7,5.782-14.465,5.782-8.692-5.782-14.457-5.782-8.7,5.782-14.465,5.782a8.875,8.875,0,0,1-3.156-.579v-.06a9.4,9.4,0,0,1-3.239.641c-5.762,0-8.705-5.783-14.465-5.783s-8.694,5.783-14.457,5.783-8.706-5.783-14.465-5.783-8.694,5.783-14.457,5.783c-4.388,0-8.225-3.308-11.809-4.955-1.016-.467,3.211.69,4.455.69,5.764,0,8.692-5.783,14.458-5.783s8.7,5.783,14.465,5.783,8.692-5.783,14.458-5.783,8.7,5.783,14.464,5.783c4.467,0,7.144-3.207,10.592-4.845Z" transform="translate(-455.135 -433.217)" fill="#ffca45" fill-rule="evenodd"/>
        </g>
      </g>
    </g>
  </g>
</svg>
